<svg width="70" height="70" viewBox="0 0 480 360" fill="none" xmlns="http://www.w3.org/2000/svg">
<rect width="480" height="360" fill="#2A3D64"/>
<rect width="480" height="360" fill="white"/>
<path d="M190 124H235.964C242.929 124 249.826 125.324 256.26 127.898C262.695 130.471 268.541 134.242 273.466 138.997C278.391 143.752 282.298 149.396 284.963 155.609C287.628 161.821 289 168.479 289 175.203V201.688H241.268V201.833C237.982 201.833 234.727 202.49 231.691 203.766C228.655 205.042 225.896 206.912 223.573 209.27C221.249 211.628 219.406 214.428 218.148 217.508C217.365 219.426 216.819 221.43 216.518 223.473V237H190V227.226C190 220.394 191.326 213.629 193.903 207.318C196.479 201.006 200.255 195.271 205.016 190.44C209.777 185.61 215.428 181.778 221.649 179.163C227.324 176.778 233.37 175.449 239.5 175.234V175.203H261.852C261.852 171.921 261.182 168.671 259.881 165.639C258.58 162.606 256.674 159.851 254.27 157.53C251.866 155.209 249.012 153.368 245.871 152.112C243.916 151.331 241.874 150.785 239.79 150.484H220.054V167.154C216.365 167.809 212.75 168.874 209.274 170.335C203.053 172.949 197.402 176.781 192.641 181.612C191.724 182.543 190.843 183.508 190 184.503V124Z" fill="url(#paint0_linear_0_1)"/>
<defs>
<linearGradient id="paint0_linear_0_1" x1="169.902" y1="90.1743" x2="298.084" y2="277.667" gradientUnits="userSpaceOnUse">
<stop stop-color="#37DEC0"/>
<stop offset="0.725886" stop-color="#8AC0FF"/>
</linearGradient>
</defs>
</svg>
