<svg width="99" height="113" viewBox="0 0 99 113" fill="none" xmlns="http://www.w3.org/2000/svg">
<path d="M0 0H45.9643C52.929 0 59.8256 1.32441 66.2602 3.89761C72.6948 6.4708 78.5414 10.2424 83.4662 14.997C88.391 19.7517 92.2976 25.3963 94.9629 31.6085C97.6282 37.8208 99 44.479 99 51.2031V77.6875H51.2679V77.8327C47.9816 77.8327 44.7274 78.4895 41.6913 79.7656C38.6551 81.0418 35.8964 82.9122 33.5727 85.2702C31.2489 87.6282 29.4056 90.4275 28.148 93.5084C27.3651 95.4262 26.8188 97.4296 26.5179 99.4733V113H0V103.226C0 96.3943 1.32608 89.6294 3.90253 83.3177C6.47898 77.006 10.2553 71.2711 15.016 66.4403C19.7767 61.6095 25.4284 57.7775 31.6485 55.1631C37.3236 52.7778 43.3705 51.4487 49.5 51.2341V51.2031H71.852C71.852 47.921 71.1824 44.671 69.8814 41.6387C68.5804 38.6063 66.6736 35.8511 64.2697 33.5303C61.8658 31.2094 59.0119 29.3685 55.8711 28.1124C53.916 27.3306 51.8735 26.7849 49.7901 26.4844H30.0536V43.1541C26.365 43.8092 22.7495 44.874 19.2735 46.335C13.0534 48.9494 7.40167 52.7814 2.64101 57.6122C1.72361 58.5431 0.842755 59.5076 0 60.5033V0Z" fill="url(#paint0_linear_2_69)"/>
<defs>
<linearGradient id="paint0_linear_2_69" x1="-20.0977" y1="-33.8257" x2="108.084" y2="153.667" gradientUnits="userSpaceOnUse">
<stop stop-color="#177CA3"/>
<stop offset="0.362943" stop-color="#14475A"/>
<stop offset="0.725886" stop-color="#1693B5"/>
</linearGradient>
</defs>
</svg>
